<svg width="300" height="280" viewBox="0 0 300 280" fill="none" xmlns="http://www.w3.org/2000/svg">
<path d="M285.591 233.316C284.459 232.041 282.974 231.566 281.539 231.182C271.524 228.501 261.247 228.493 251.045 228.494C173.89 228.504 96.7338 228.516 19.578 228.526L22.828 230.278C18.6844 230.993 14.3863 231.781 10.8659 234.876C7.34544 237.971 4.84956 244.083 6.1924 249.531C6.81889 252.075 8.18608 254.157 9.71788 255.82C19.8559 266.827 34.6692 260.273 47.3611 263.509C55.2485 265.521 62.2986 271.392 69.8434 275.146C80.8103 280.601 92.9513 281.487 104.275 277.66C110.876 275.428 117.165 271.654 123.784 269.524C132.165 266.827 140.864 266.829 149.471 266.847L192.778 266.93C200.686 266.945 208.611 266.961 216.476 268.11C229.731 270.045 242.867 275.189 256.162 273.871C269.458 272.553 283.632 262.508 287.12 244.784C287.901 240.812 287.903 235.922 285.591 233.316Z" fill="#D1DEF2"/>
<path d="M286.983 245.856L30.3131 245.566C30.3131 245.566 -14.6574 183.613 17.7043 129.766C50.066 75.9195 62.9284 163.016 71.0434 81.3132C80.7397 -16.3075 194.864 -25.5561 197.954 51.0151C206.251 256.522 336.576 51.3125 286.983 245.856Z" fill="#E6EBF4"/>
<path d="M20.0155 221.4H20.7503L20.6344 228.226H20.0155V221.4Z" fill="#5CA88D"/>
<path d="M26.9128 217.888C27.1899 217.556 34.749 208.074 33.8588 196.175C32.9686 184.276 25.7556 181.331 27.8038 167.469C29.8521 153.606 27.8038 144.037 21.5708 143.916C15.337 143.793 12.4884 152.134 14.8029 166.978C17.1182 181.822 7.19933 187.627 7.67886 198.506C8.23229 211.045 15.426 231.628 26.9128 217.888Z" fill="#7AC094"/>
<path opacity="0.2" d="M17.2534 145.77C17.3609 146.431 17.6431 147.083 18.105 147.368C18.5307 147.63 19.0203 147.577 19.4679 147.468C20.2968 147.268 21.1341 146.84 21.9865 146.994C22.4148 147.072 22.8229 147.331 23.2067 147.592C23.6292 147.88 24.0297 148.227 24.4035 148.623C25.119 149.381 25.7396 150.327 26.167 151.426C26.6541 152.679 26.8229 154.061 26.8523 155.469C26.8851 157.094 26.7759 158.722 26.9892 160.331C27.1311 161.403 27.3713 162.577 27.9155 163.4C28.0205 163.558 28.1372 163.685 28.259 163.796C29.4423 151.944 27.2361 144.025 21.57 143.914C19.8593 143.881 18.409 144.494 17.245 145.696C17.2492 145.721 17.2492 145.745 17.2534 145.77Z" fill="#F2FAFF"/>
<path opacity="0.15" d="M21.8353 193.58C20.9695 191.383 20.9577 188.655 21.4339 186.294C21.6892 185.03 22.0797 183.821 22.5281 182.665C22.7095 182.199 22.9329 181.757 23.0975 181.279C23.2168 180.934 23.1932 180.632 23.0967 180.281C22.9296 179.672 22.6927 179.092 22.5055 178.494C22.3173 177.892 22.1359 177.283 21.9823 176.662C21.6606 175.368 21.5313 174.06 21.4557 172.703C21.3818 171.363 21.4171 169.977 21.7278 168.693C22.0049 167.546 22.6045 166.621 22.9069 165.498C22.4114 165.081 21.9806 164.543 21.6245 163.91C21.2138 163.179 20.8947 162.365 20.6436 161.506C20.6411 163.404 20.6411 165.303 20.6377 167.201C20.6235 174.768 20.6008 182.334 20.5873 189.901C20.5756 196.643 20.5764 203.386 20.5764 210.129C20.678 209.644 20.7864 209.161 20.9098 208.686C22.0116 204.412 23.8491 200.617 25.6303 196.834C24.0322 196.917 22.5945 195.506 21.8353 193.58Z" fill="#202234"/>
<path opacity="0.15" d="M22.7533 221.541C21.879 221.553 20.9956 221.351 20.2112 220.801C19.3832 220.221 18.7323 219.264 18.2746 218.16C17.9924 217.48 17.8245 216.805 17.7288 216.035C17.6255 215.206 17.518 214.426 17.1224 213.757C16.4338 212.593 15.2581 212.431 14.3158 211.843C13.4323 211.293 12.7546 210.245 12.2306 209.144C11.7049 208.039 11.3328 206.797 11.0775 205.526C10.5375 202.835 10.4788 199.96 10.729 197.2C10.96 194.646 11.4487 192.116 12.3683 189.862C13.4642 187.177 14.9045 184.78 15.9299 182.039C16.4329 180.695 16.8075 179.263 16.9713 177.763C17.1661 175.977 17.0443 174.177 16.7487 172.425C16.422 170.492 15.903 168.636 15.3698 166.796C14.8717 165.082 14.446 163.351 14.1613 161.547C14.2914 163.247 14.5031 165.056 14.8029 166.978C17.1182 181.822 7.19933 187.627 7.67886 198.506C8.16175 209.458 13.7111 226.542 22.7608 221.541H22.7533Z" fill="#202234"/>
<path d="M28.5394 193.54C28.5307 193.528 28.5204 193.519 28.509 193.512C28.4976 193.506 28.4854 193.502 28.473 193.502C28.4607 193.502 28.4485 193.506 28.4371 193.512C28.4257 193.519 28.4154 193.528 28.4067 193.54L20.5092 204.419V185.921L24.9098 179.517C24.945 179.466 24.9442 179.384 24.9064 179.334C24.8883 179.311 24.8642 179.298 24.8394 179.299C24.8145 179.3 24.7909 179.314 24.7737 179.339L20.5092 185.544V168.9L23.7063 164.429C23.7425 164.378 23.7425 164.297 23.7055 164.247C23.6878 164.223 23.6638 164.209 23.639 164.209C23.6141 164.21 23.5903 164.223 23.5728 164.248L20.5092 168.532V154.219C20.5098 154.202 20.5077 154.185 20.5033 154.168C20.4988 154.152 20.492 154.137 20.4832 154.124C20.4745 154.112 20.464 154.102 20.4524 154.095C20.4407 154.088 20.4282 154.085 20.4156 154.085C20.4029 154.085 20.3904 154.088 20.3788 154.095C20.3672 154.102 20.3567 154.112 20.3479 154.124C20.3392 154.137 20.3324 154.152 20.3279 154.168C20.3234 154.185 20.3214 154.202 20.3219 154.219V174.181L17.8899 171.326C17.8709 171.304 17.8464 171.293 17.8217 171.296C17.797 171.299 17.7741 171.315 17.758 171.341C17.7244 171.395 17.7295 171.476 17.769 171.523L20.3228 174.52V193.319L15.504 186.681C15.4679 186.631 15.4083 186.631 15.3713 186.681C15.3352 186.732 15.3352 186.813 15.3713 186.864L20.3228 193.684V222.059C20.3228 222.131 20.3648 222.187 20.4168 222.187C20.4681 222.187 20.5101 222.13 20.5101 222.059V204.782L28.5394 193.721C28.5763 193.672 28.5763 193.591 28.5394 193.54Z" fill="#B8DEBF"/>
<path d="M205.338 228.518H206.074L205.958 235.344H205.338V228.518Z" fill="#5CA88D"/>
<path d="M212.237 225.007C212.514 224.675 220.073 215.193 219.183 203.293C218.292 191.394 211.079 188.45 213.128 174.587C215.176 160.725 213.128 151.156 206.895 151.034C200.661 150.912 197.812 159.253 200.127 174.097C202.442 188.94 192.523 194.746 193.003 205.625C193.555 218.164 200.75 238.746 212.237 225.007Z" fill="#7AC094"/>
<path opacity="0.2" d="M202.577 152.889C202.685 153.549 202.967 154.202 203.429 154.487C203.854 154.749 204.344 154.696 204.792 154.587C205.621 154.387 206.458 153.959 207.31 154.113C207.739 154.19 208.147 154.45 208.53 154.711C208.953 154.999 209.353 155.346 209.727 155.742C210.443 156.5 211.063 157.446 211.491 158.545C211.978 159.798 212.147 161.179 212.176 162.587C212.209 164.213 212.1 165.841 212.313 167.45C212.455 168.521 212.695 169.696 213.239 170.518C213.344 170.677 213.461 170.804 213.583 170.915C214.766 159.062 212.56 151.144 206.894 151.033C205.183 150.999 203.733 151.613 202.569 152.815C202.572 152.84 202.573 152.863 202.577 152.889Z" fill="#F2FAFF"/>
<path opacity="0.15" d="M207.158 200.698C206.292 198.501 206.281 195.773 206.757 193.413C207.012 192.149 207.403 190.94 207.851 189.784C208.032 189.318 208.256 188.876 208.42 188.398C208.54 188.053 208.516 187.751 208.42 187.399C208.252 186.791 208.016 186.211 207.828 185.613C207.64 185.01 207.459 184.402 207.305 183.78C206.984 182.487 206.854 181.178 206.779 179.821C206.705 178.482 206.74 177.096 207.051 175.811C207.328 174.665 207.927 173.739 208.23 172.617C207.734 172.199 207.303 171.661 206.947 171.029C206.537 170.297 206.218 169.484 205.966 168.624C205.964 170.523 205.964 172.421 205.961 174.32C205.946 181.886 205.924 189.453 205.91 197.019C205.898 203.762 205.899 210.505 205.899 217.247C206.001 216.763 206.109 216.28 206.233 215.805C207.335 211.531 209.172 207.736 210.953 203.953C209.356 204.036 207.918 202.625 207.158 200.698Z" fill="#202234"/>
<path opacity="0.15" d="M208.077 228.659C207.203 228.672 206.319 228.47 205.535 227.92C204.707 227.339 204.056 226.383 203.598 225.279C203.316 224.599 203.148 223.924 203.052 223.153C202.949 222.325 202.842 221.544 202.446 220.875C201.757 219.712 200.582 219.55 199.64 218.962C198.756 218.411 198.078 217.364 197.554 216.263C197.029 215.158 196.657 213.915 196.401 212.645C195.861 209.954 195.802 207.079 196.053 204.318C196.284 201.765 196.772 199.235 197.692 196.981C198.788 194.296 200.228 191.899 201.254 189.158C201.757 187.813 202.131 186.381 202.295 184.882C202.49 183.095 202.368 181.295 202.072 179.544C201.746 177.61 201.227 175.755 200.693 173.915C200.195 172.2 199.769 170.47 199.484 168.666C199.614 170.366 199.826 172.175 200.126 174.097C202.441 188.94 192.522 194.746 193.002 205.625C193.485 216.576 199.034 233.661 208.084 228.659C208.082 228.658 208.08 228.659 208.077 228.659Z" fill="#202234"/>
<path d="M213.863 200.659C213.854 200.647 213.844 200.637 213.833 200.631C213.821 200.624 213.809 200.621 213.797 200.621C213.784 200.621 213.772 200.624 213.761 200.631C213.749 200.637 213.739 200.647 213.73 200.659L205.833 211.538V193.039L210.234 186.636C210.269 186.585 210.268 186.503 210.23 186.453C210.212 186.429 210.188 186.417 210.163 186.417C210.138 186.418 210.115 186.433 210.097 186.458L205.833 192.662V176.018L209.03 171.548C209.066 171.497 209.066 171.416 209.029 171.365C209.012 171.341 208.988 171.328 208.963 171.328C208.938 171.328 208.914 171.342 208.897 171.366L205.833 175.651V161.336C205.833 161.302 205.823 161.269 205.806 161.245C205.788 161.221 205.764 161.207 205.74 161.207C205.715 161.207 205.691 161.221 205.674 161.245C205.656 161.269 205.647 161.302 205.647 161.336V181.298L203.214 178.442C203.195 178.42 203.171 178.41 203.146 178.412C203.122 178.415 203.099 178.431 203.083 178.457C203.049 178.512 203.054 178.593 203.094 178.639L205.647 181.637V200.436L200.829 193.797C200.792 193.747 200.733 193.747 200.696 193.797C200.66 193.848 200.66 193.929 200.696 193.98L205.647 200.8V229.175C205.647 229.247 205.689 229.304 205.741 229.304C205.792 229.304 205.834 229.246 205.834 229.175V211.899L213.863 200.837C213.899 200.791 213.899 200.709 213.863 200.659Z" fill="#B8DEBF"/>
<path d="M190.939 224.934H189.894L190.06 234.627H190.939V224.934Z" fill="#5CA88D"/>
<path d="M181.144 219.946C180.75 219.476 170.016 206.01 171.28 189.112C172.545 172.213 182.787 168.033 179.879 148.348C176.971 128.662 179.879 115.074 188.73 114.9C197.582 114.726 201.629 126.572 198.341 147.651C195.053 168.73 209.138 176.974 208.457 192.422C207.672 210.229 197.456 239.458 181.144 219.946Z" fill="#7AC094"/>
<path opacity="0.2" d="M194.861 117.535C194.708 118.472 194.308 119.399 193.652 119.804C193.047 120.176 192.351 120.101 191.716 119.947C190.539 119.662 189.349 119.054 188.139 119.273C187.53 119.382 186.952 119.752 186.407 120.123C185.806 120.531 185.239 121.025 184.707 121.586C183.691 122.662 182.81 124.006 182.203 125.568C181.511 127.346 181.271 129.308 181.23 131.308C181.183 133.616 181.339 135.928 181.035 138.214C180.835 139.735 180.493 141.403 179.719 142.572C179.571 142.797 179.405 142.977 179.231 143.136C177.55 126.304 180.684 115.059 188.73 114.902C191.16 114.853 193.22 115.725 194.872 117.432C194.867 117.467 194.866 117.499 194.861 117.535Z" fill="#F2FAFF"/>
<path opacity="0.15" d="M188.354 185.428C189.584 182.308 189.6 178.433 188.924 175.082C188.561 173.287 188.007 171.57 187.369 169.928C187.112 169.266 186.795 168.639 186.561 167.96C186.392 167.471 186.425 167.042 186.562 166.543C186.799 165.68 187.136 164.856 187.401 164.006C187.668 163.15 187.925 162.285 188.144 161.404C188.6 159.568 188.785 157.71 188.892 155.781C188.997 153.879 188.946 151.911 188.505 150.087C188.112 148.459 187.261 147.143 186.831 145.551C187.534 144.959 188.146 144.194 188.652 143.295C189.235 142.258 189.688 141.103 190.045 139.881C190.048 142.578 190.048 145.274 190.053 147.969C190.073 158.714 190.105 169.46 190.125 180.204C190.141 189.779 190.14 199.354 190.14 208.929C189.995 208.24 189.841 207.556 189.667 206.88C188.102 200.811 185.492 195.423 182.964 190.05C185.234 190.168 187.276 188.164 188.354 185.428Z" fill="#202234"/>
<path opacity="0.15" d="M187.05 225.134C188.292 225.153 189.546 224.866 190.66 224.085C191.837 223.26 192.76 221.902 193.411 220.334C193.812 219.368 194.05 218.41 194.185 217.316C194.332 216.139 194.484 215.029 195.046 214.081C196.023 212.427 197.694 212.198 199.032 211.363C200.286 210.581 201.249 209.094 201.993 207.53C202.74 205.96 203.267 204.197 203.629 202.392C204.397 198.571 204.479 194.487 204.125 190.568C203.797 186.942 203.103 183.349 201.797 180.149C200.241 176.335 198.195 172.932 196.739 169.039C196.024 167.13 195.493 165.096 195.261 162.966C194.985 160.429 195.157 157.872 195.577 155.384C196.04 152.639 196.777 150.003 197.535 147.392C198.242 144.958 198.847 142.499 199.251 139.938C199.065 142.351 198.765 144.921 198.34 147.649C195.052 168.727 209.137 176.972 208.456 192.419C207.77 207.971 199.89 232.233 187.038 225.131C187.043 225.134 187.047 225.134 187.05 225.134Z" fill="#202234"/>
<path d="M178.834 185.372C178.886 185.301 178.97 185.301 179.022 185.372L190.237 200.821V174.553L183.988 165.459C183.938 165.386 183.939 165.269 183.993 165.2C184.047 165.13 184.131 165.134 184.181 165.207L190.237 174.018V150.383L185.697 144.034C185.646 143.962 185.646 143.846 185.699 143.774C185.752 143.704 185.836 143.704 185.887 143.777L190.238 149.861V129.534C190.238 129.485 190.252 129.439 190.277 129.404C190.302 129.37 190.335 129.351 190.371 129.351C190.406 129.351 190.439 129.37 190.464 129.404C190.489 129.439 190.503 129.485 190.503 129.534V157.881L193.957 153.827C194.013 153.762 194.097 153.77 194.144 153.848C194.192 153.925 194.185 154.041 194.129 154.106L190.502 158.362V185.059L197.345 175.632C197.397 175.56 197.481 175.56 197.533 175.632C197.585 175.704 197.585 175.819 197.533 175.891L190.502 185.577V225.873C190.502 225.975 190.443 226.056 190.37 226.056C190.297 226.056 190.237 225.974 190.237 225.873V201.339L178.835 185.631C178.782 185.56 178.782 185.443 178.834 185.372Z" fill="#B8DEBF"/>
<path d="M38.1677 218.209H39.2544L39.0831 228.293H38.1677V218.209Z" fill="#5CA88D"/>
<path d="M48.3588 213.021C48.7686 212.532 59.9354 198.522 58.6194 180.942C57.3043 163.363 46.6481 159.014 49.6739 138.533C52.6997 118.054 49.6739 103.918 40.4655 103.737C31.2571 103.556 27.0472 115.879 30.4677 137.809C33.8882 159.738 19.2345 168.315 19.9433 184.387C20.7604 202.91 31.3881 233.318 48.3588 213.021Z" fill="#7AC094"/>
<path opacity="0.2" d="M34.088 106.477C34.2476 107.452 34.6641 108.417 35.3461 108.837C35.9751 109.225 36.6981 109.146 37.3599 108.986C38.5843 108.69 39.8222 108.057 41.0811 108.285C41.7143 108.4 42.3164 108.783 42.8841 109.17C43.5089 109.596 44.0993 110.108 44.6519 110.694C45.7092 111.814 46.6254 113.211 47.2569 114.836C47.9767 116.686 48.2261 118.727 48.2689 120.807C48.3185 123.207 48.1564 125.613 48.4713 127.991C48.6804 129.574 49.0356 131.308 49.8402 132.525C49.9947 132.759 50.1677 132.947 50.3474 133.112C52.0959 115.602 48.8358 103.903 40.4646 103.738C37.9377 103.689 35.7945 104.596 34.0754 106.37C34.0813 106.406 34.0822 106.44 34.088 106.477Z" fill="#F2FAFF"/>
<path opacity="0.15" d="M40.8568 177.108C39.5769 173.863 39.561 169.832 40.2639 166.345C40.641 164.477 41.2179 162.69 41.8805 160.984C42.1476 160.294 42.4784 159.642 42.722 158.936C42.8975 158.427 42.8631 157.98 42.7203 157.462C42.4734 156.563 42.1232 155.707 41.8469 154.823C41.5689 153.932 41.3019 153.033 41.0735 152.116C40.599 150.206 40.4075 148.273 40.2966 146.266C40.1875 144.287 40.2395 142.239 40.6981 140.342C41.107 138.648 41.993 137.28 42.4398 135.624C41.7083 135.007 41.0718 134.212 40.5461 133.276C39.9389 132.197 39.4678 130.995 39.0957 129.723C39.0924 132.528 39.0924 135.333 39.0865 138.138C39.0655 149.316 39.0327 160.495 39.0126 171.673C38.9949 181.634 38.9966 191.594 38.9966 201.556C39.1469 200.84 39.3074 200.127 39.4888 199.425C41.1171 193.11 43.8314 187.505 46.4625 181.917C44.1026 182.04 41.9788 179.956 40.8568 177.108Z" fill="#202234"/>
<path opacity="0.15" d="M42.2131 218.417C40.9215 218.437 39.6164 218.138 38.4575 217.325C37.2339 216.468 36.2732 215.053 35.5963 213.422C35.1789 212.417 34.932 211.421 34.7901 210.283C34.6381 209.058 34.4785 207.905 33.8949 206.918C32.8779 205.198 31.1403 204.959 29.7488 204.091C28.4437 203.276 27.4427 201.73 26.6684 200.103C25.8916 198.47 25.3424 196.634 24.9653 194.757C24.1666 190.782 24.081 186.534 24.4497 182.457C24.7915 178.684 25.5128 174.947 26.8708 171.617C28.4891 167.65 30.6171 164.109 32.133 160.06C32.8762 158.074 33.4296 155.957 33.6707 153.743C33.9587 151.104 33.779 148.444 33.3423 145.856C32.8603 142.999 32.0935 140.257 31.3041 137.54C30.5693 135.007 29.9394 132.45 29.5195 129.786C29.7127 132.296 30.0251 134.97 30.4677 137.808C33.8882 159.737 19.2345 168.314 19.9433 184.385C20.6571 200.564 28.8544 225.805 42.2249 218.416C42.2207 218.417 42.2173 218.417 42.2131 218.417Z" fill="#202234"/>
<path d="M50.7614 177.05C50.7068 176.975 50.6195 176.975 50.5657 177.05L38.8992 193.123V165.795L45.4001 156.335C45.4134 156.317 45.424 156.296 45.4312 156.272C45.4383 156.249 45.4419 156.223 45.4418 156.198C45.4417 156.172 45.4377 156.147 45.4303 156.123C45.4229 156.099 45.4121 156.078 45.3985 156.061C45.385 156.043 45.369 156.029 45.3516 156.02C45.3341 156.012 45.3155 156.008 45.2969 156.009C45.2783 156.01 45.2601 156.016 45.2433 156.028C45.2266 156.039 45.2116 156.055 45.1994 156.074L38.8992 165.24V140.651L43.6222 134.046C43.676 133.97 43.6752 133.85 43.6206 133.776C43.566 133.702 43.4786 133.702 43.4249 133.778L38.8984 140.108V118.96C38.8984 118.855 38.8371 118.769 38.7598 118.769C38.6834 118.769 38.6212 118.855 38.6212 118.96V148.451L35.0286 144.234C34.9706 144.165 34.8833 144.175 34.8337 144.256C34.7842 144.335 34.7909 144.456 34.8497 144.524L38.6221 148.953V176.725L31.5039 166.919C31.4502 166.845 31.362 166.845 31.3083 166.919C31.2545 166.993 31.2545 167.113 31.3083 167.189L38.6229 177.264V219.185C38.6229 219.29 38.6851 219.376 38.7615 219.376C38.8379 219.376 38.9 219.29 38.9 219.185V193.662L50.7622 177.32C50.8151 177.246 50.8151 177.124 50.7614 177.05Z" fill="#B8DEBF"/>
<path d="M16.9654 233.786C16.9654 233.786 19.1724 211.715 14.7777 213.893C10.3839 216.072 12.4011 224.917 16.9654 233.786Z" fill="#394CA4"/>
<path d="M17.2558 233.572C17.2558 233.572 8.26998 211.802 2.07057 219.287C-4.12883 226.774 17.2558 233.572 17.2558 233.572Z" fill="#100959"/>
<path opacity="0.5" d="M2.41497 219.531C2.59469 220.211 2.88946 220.788 3.4219 220.966C4.08702 221.188 4.81176 220.918 5.48025 220.866C6.24278 220.807 6.97425 220.963 7.66541 221.42C8.33305 221.862 8.90495 222.531 9.47014 223.181C10.0362 223.833 10.6131 224.542 11.2749 225.004C11.903 225.441 12.6479 225.628 13.3383 225.776H13.3399C10.2377 220.525 5.8506 215.202 2.30664 219.021C2.33519 219.193 2.37046 219.363 2.41497 219.531Z" fill="#F2FAFF"/>
<path d="M4.611 245.566H82.1884L81.0757 240.223L78.4588 227.568C76.6046 218.636 70.1633 213.045 63.5095 214.607L60.1512 215.41C59.8967 215.469 59.6532 215.498 59.4096 215.498C57.9266 215.498 56.5174 214.476 55.6801 212.739C49.9165 200.829 36.8854 202.303 32.6049 215.352L32.033 217.104C31.0236 220.194 28.3891 221.575 26.1443 220.191L22.7952 218.125C20.8351 216.914 18.6525 217.819 17.4448 219.95C16.9997 220.723 16.6814 221.658 16.5546 222.708L16.0566 226.708C15.929 227.7 15.6535 228.576 15.2622 229.306C15.1883 229.438 15.1135 229.569 15.0396 229.686C14.3669 230.758 13.4468 231.48 12.4337 231.729C12.1801 231.802 11.9038 231.831 11.6393 231.831C10.7986 231.831 9.94709 231.514 9.17364 230.802C7.42937 229.199 5.09137 229.598 3.60828 231.641L1.35761 234.741C-1.54222 238.735 0.511096 245.566 4.611 245.566Z" fill="#4094F2"/>
<path opacity="0.2" d="M1.57426 237.036C2.02859 236.104 2.30237 235.02 2.79113 234.121C3.80057 232.263 5.65065 231.89 7.22444 232.253C8.28258 232.498 9.28111 233.02 10.3703 232.886C11.2202 232.78 12.0659 232.597 12.8914 232.298C14.5122 231.71 16.1549 230.617 17.0644 228.589C17.9697 226.572 17.538 223.901 18.6079 221.987C19.7585 219.929 21.7404 220.122 23.3368 220.928C24.2321 221.379 25.0257 222.135 25.9234 222.56C26.9774 223.059 28.1086 223.121 29.1928 222.78C29.7538 222.603 30.2971 222.329 30.8127 221.979C31.1327 221.762 31.4241 221.527 31.65 221.139C32.0212 220.502 32.1606 219.658 32.1388 218.854C32.1262 218.365 32.0473 217.876 31.912 217.427C30.8287 220.285 28.3068 221.525 26.1435 220.191L22.7943 218.125C20.8342 216.914 18.6516 217.819 17.444 219.95C16.9989 220.723 16.6806 221.658 16.5538 222.708L16.0558 226.708C15.9281 227.7 15.6527 228.576 15.2613 229.306C15.1874 229.438 15.1127 229.569 15.0388 229.686C14.3658 230.758 13.4458 231.479 12.4329 231.729C12.1793 231.802 11.903 231.831 11.6384 231.831C10.7978 231.831 9.94623 231.514 9.17277 230.802C7.42851 229.199 5.0905 229.598 3.60742 231.641L1.35675 234.741C0.538787 235.868 0.115527 237.221 0.0206299 238.583C0.667276 238.386 1.19215 237.821 1.57426 237.036Z" fill="#F2FAFF"/>
<path opacity="0.25" d="M11.4579 245.566H82.1884L81.0757 240.223C77.5796 235.903 72.7482 233.787 67.832 234.954L65.2152 235.568L63.806 235.889C63.4986 235.962 63.1921 235.991 62.8948 235.991C62.2381 235.991 61.5914 235.83 60.9876 235.51C59.9706 234.969 59.0804 234.021 58.4447 232.708C57.5545 230.854 56.5056 229.277 55.3618 227.978C54.9167 227.453 54.4615 226.985 53.9845 226.562C51.4097 224.212 48.4544 223.045 45.4874 223.001C43.7499 222.957 42.0233 223.307 40.3705 224.051C36.3554 225.803 32.7955 229.787 30.8144 235.844L30.1258 237.917C28.9073 241.639 25.7395 243.289 23.0488 241.624L21.0148 240.369L19.0547 239.158C18.1645 238.603 17.2324 238.429 16.3422 238.544C14.0319 238.851 11.9979 241.216 11.5746 244.645L11.4579 245.566Z" fill="#F2FAFF"/>
<path d="M21.0493 225.867C21.0493 226.916 21.6666 227.766 22.4283 227.766C23.19 227.766 23.8072 226.916 23.8072 225.867C23.8072 224.817 23.19 223.967 22.4283 223.967C21.6666 223.967 21.0493 224.818 21.0493 225.867Z" fill="#100959"/>
<path opacity="0.15" d="M21.3684 226.317C21.3684 227.366 21.9857 228.216 22.7474 228.216C23.5091 228.216 24.1263 227.366 24.1263 226.317C24.1263 225.267 23.5091 224.417 22.7474 224.417C21.9857 224.417 21.3684 225.267 21.3684 226.317Z" fill="#202234"/>
<path d="M41.0466 240.377C41.0466 241.426 41.6639 242.277 42.4256 242.277C43.1873 242.277 43.8045 241.426 43.8045 240.377C43.8045 239.328 43.1873 238.477 42.4256 238.477C41.6639 238.477 41.0466 239.328 41.0466 240.377Z" fill="#394CA4"/>
<path opacity="0.15" d="M35.755 216.229C35.755 218.252 36.945 219.89 38.4121 219.89C39.8801 219.89 41.0701 218.25 41.0701 216.229C41.0701 214.208 39.8801 212.567 38.4121 212.567C36.945 212.567 35.755 214.207 35.755 216.229Z" fill="#202234"/>
<path d="M36.0884 214.928C36.0884 216.95 37.2784 218.588 38.7455 218.588C40.2135 218.588 41.4035 216.949 41.4035 214.928C41.4035 212.905 40.2135 211.266 38.7455 211.266C37.2784 211.267 36.0884 212.905 36.0884 214.928Z" fill="#394CA4"/>
<path d="M21.0996 244.566C21.0996 244.566 27.3184 233.764 24.4798 233.019C21.6405 232.274 20.694 237.861 21.0996 244.566Z" fill="#100959"/>
<path opacity="0.5" d="M21.2995 237.925C21.5893 237.83 21.7707 237.552 21.895 237.191C22.1444 236.466 22.1267 235.617 22.4131 234.914C22.5576 234.56 22.7826 234.289 23.0488 234.12C23.3117 233.954 23.6056 233.87 23.8559 233.666C24.0978 233.468 24.1423 233.228 23.955 232.953C22.4694 232.981 21.5926 234.971 21.2214 237.944C21.2466 237.937 21.2735 237.933 21.2995 237.925Z" fill="#F2FAFF"/>
<path d="M21.0997 244.566C21.0997 244.566 17.1795 230.04 12.8528 233.764C8.52703 237.488 21.0997 244.566 21.0997 244.566Z" fill="#394CA4"/>
<path opacity="0.2" d="M13.0292 233.634C13.0745 233.773 13.1753 233.902 13.2534 233.944C13.4264 234.042 13.6489 234.003 13.8312 233.999C14.2326 233.988 14.6466 233.949 15.043 234.059C15.4696 234.177 15.8778 234.517 16.2288 234.859C16.8746 235.488 17.2912 236.466 17.9546 237.052C18.0621 237.147 18.2141 237.251 18.3863 237.341C16.9317 234.452 15.0296 232.135 13.0292 233.634Z" fill="#F2FAFF"/>
<path d="M21.0996 244.566C21.0996 244.566 35.5652 242.145 31.9146 238.979C28.2648 235.813 21.0996 244.566 21.0996 244.566Z" fill="#394CA4"/>
<path opacity="0.2" d="M25.9302 240.143C26.3559 240.036 26.6692 239.69 27.032 239.392C27.3746 239.111 27.7466 238.883 28.1388 238.77C28.6939 238.609 29.2516 238.805 29.8092 238.699C30.004 238.662 30.2324 238.571 30.3055 238.305C28.8602 238.182 27.1899 239.049 25.6707 240.177C25.7572 240.172 25.8437 240.165 25.9302 240.143Z" fill="#F2FAFF"/>
<path d="M143.023 233.786C143.023 233.786 145.23 211.715 140.835 213.893C136.441 216.072 138.458 224.917 143.023 233.786Z" fill="#394CA4"/>
<path d="M143.313 233.572C143.313 233.572 134.327 211.802 128.128 219.287C121.929 226.774 143.313 233.572 143.313 233.572Z" fill="#100959"/>
<path opacity="0.5" d="M128.472 219.531C128.652 220.211 128.947 220.788 129.479 220.966C130.144 221.188 130.869 220.918 131.538 220.866C132.3 220.807 133.032 220.963 133.723 221.42C134.39 221.862 134.962 222.531 135.527 223.181C136.093 223.833 136.67 224.542 137.331 225.004C137.96 225.441 138.704 225.628 139.395 225.776H139.396C136.293 220.525 131.907 215.202 128.363 219.021C128.393 219.193 128.429 219.363 128.472 219.531Z" fill="#F2FAFF"/>
<path d="M130.668 245.566H208.246L207.133 240.223L204.516 227.568C202.662 218.636 196.221 213.045 189.568 214.607L186.209 215.41C185.955 215.469 185.711 215.498 185.468 215.498C183.985 215.498 182.576 214.476 181.738 212.739C175.975 200.829 162.944 202.303 158.663 215.352L158.091 217.104C157.082 220.194 154.447 221.575 152.202 220.191L148.853 218.125C146.892 216.914 144.71 217.819 143.502 219.95C143.057 220.723 142.739 221.658 142.612 222.708L142.114 226.708C141.986 227.7 141.712 228.576 141.32 229.306C141.246 229.438 141.171 229.569 141.097 229.686C140.424 230.759 139.504 231.48 138.49 231.729C138.237 231.802 137.96 231.831 137.696 231.831C136.855 231.831 136.004 231.514 135.23 230.802C133.486 229.199 131.148 229.598 129.665 231.641L127.414 234.741C124.515 238.735 126.568 245.566 130.668 245.566Z" fill="#4094F2"/>
<path opacity="0.2" d="M127.632 237.036C128.087 236.104 128.361 235.02 128.849 234.121C129.859 232.263 131.709 231.89 133.282 232.253C134.34 232.498 135.338 233.02 136.428 232.886C137.278 232.78 138.123 232.597 138.949 232.298C140.57 231.71 142.212 230.617 143.122 228.589C144.027 226.572 143.595 223.901 144.665 221.987C145.816 219.929 147.798 220.122 149.394 220.928C150.289 221.379 151.083 222.135 151.981 222.56C153.035 223.059 154.166 223.121 155.25 222.78C155.811 222.603 156.354 222.329 156.87 221.979C157.19 221.762 157.481 221.527 157.707 221.139C158.079 220.502 158.218 219.658 158.196 218.854C158.184 218.365 158.105 217.876 157.969 217.427C156.886 220.285 154.364 221.525 152.201 220.191L148.852 218.125C146.892 216.914 144.709 217.819 143.501 219.95C143.056 220.723 142.738 221.658 142.611 222.708L142.113 226.708C141.985 227.7 141.711 228.576 141.319 229.306C141.245 229.438 141.17 229.569 141.096 229.686C140.423 230.758 139.503 231.48 138.489 231.729C138.236 231.802 137.959 231.831 137.695 231.831C136.854 231.831 136.003 231.514 135.229 230.802C133.485 229.199 131.147 229.598 129.664 231.641L127.413 234.741C126.595 235.868 126.172 237.221 126.077 238.583C126.725 238.386 127.25 237.821 127.632 237.036Z" fill="#F2FAFF"/>
<path opacity="0.25" d="M137.515 245.566H208.246L207.133 240.223C203.637 235.903 198.806 233.787 193.889 234.954L191.273 235.568L189.863 235.889C189.556 235.962 189.249 235.991 188.952 235.991C188.295 235.991 187.649 235.83 187.045 235.51C186.028 234.969 185.138 234.021 184.502 232.708C183.612 230.854 182.563 229.277 181.419 227.978C180.974 227.453 180.519 226.985 180.042 226.562C177.467 224.212 174.512 223.045 171.545 223.001C169.807 222.957 168.081 223.307 166.428 224.051C162.413 225.803 158.853 229.787 156.872 235.844L156.183 237.917C154.965 241.639 151.797 243.289 149.106 241.624L147.072 240.369L145.112 239.158C144.222 238.603 143.29 238.429 142.4 238.544C140.089 238.851 138.056 241.216 137.632 244.645L137.515 245.566Z" fill="#F2FAFF"/>
<path d="M147.107 225.867C147.107 226.916 147.724 227.766 148.486 227.766C149.247 227.766 149.865 226.916 149.865 225.867C149.865 224.817 149.247 223.967 148.486 223.967C147.724 223.967 147.107 224.818 147.107 225.867Z" fill="#100959"/>
<path opacity="0.15" d="M147.427 226.317C147.427 227.366 148.044 228.216 148.806 228.216C149.567 228.216 150.185 227.366 150.185 226.317C150.185 225.267 149.567 224.417 148.806 224.417C148.044 224.417 147.427 225.267 147.427 226.317Z" fill="#202234"/>
<path d="M167.104 240.377C167.104 241.426 167.721 242.277 168.483 242.277C169.245 242.277 169.862 241.426 169.862 240.377C169.862 239.328 169.245 238.477 168.483 238.477C167.721 238.477 167.104 239.328 167.104 240.377Z" fill="#394CA4"/>
<path opacity="0.15" d="M161.812 216.229C161.812 218.252 163.002 219.89 164.47 219.89C165.937 219.89 167.127 218.25 167.127 216.229C167.127 214.208 165.937 212.567 164.47 212.567C163.002 212.567 161.812 214.207 161.812 216.229Z" fill="#202234"/>
<path d="M162.146 214.928C162.146 216.95 163.336 218.588 164.804 218.588C166.272 218.588 167.462 216.949 167.462 214.928C167.462 212.905 166.272 211.266 164.804 211.266C163.336 211.267 162.146 212.905 162.146 214.928Z" fill="#394CA4"/>
<path d="M147.157 244.566C147.157 244.566 153.376 233.764 150.537 233.019C147.698 232.274 146.751 237.861 147.157 244.566Z" fill="#100959"/>
<path opacity="0.5" d="M147.357 237.925C147.647 237.83 147.828 237.552 147.952 237.191C148.202 236.466 148.183 235.617 148.47 234.914C148.615 234.56 148.84 234.289 149.106 234.12C149.369 233.954 149.663 233.87 149.913 233.666C150.155 233.468 150.2 233.228 150.012 232.953C148.527 232.981 147.65 234.971 147.279 237.944C147.305 237.937 147.332 237.933 147.357 237.925Z" fill="#F2FAFF"/>
<path d="M147.157 244.566C147.157 244.566 143.237 230.04 138.91 233.764C134.584 237.488 147.157 244.566 147.157 244.566Z" fill="#394CA4"/>
<path opacity="0.2" d="M139.087 233.634C139.133 233.773 139.234 233.902 139.312 233.944C139.485 234.042 139.707 234.003 139.889 233.999C140.292 233.988 140.705 233.949 141.101 234.059C141.528 234.177 141.936 234.517 142.287 234.859C142.933 235.488 143.349 236.466 144.012 237.052C144.119 237.147 144.271 237.251 144.444 237.341C142.99 234.452 141.088 232.135 139.087 233.634Z" fill="#F2FAFF"/>
<path d="M147.157 244.566C147.157 244.566 161.623 242.145 157.972 238.979C154.322 235.813 147.157 244.566 147.157 244.566Z" fill="#394CA4"/>
<path opacity="0.2" d="M151.988 240.143C152.413 240.036 152.727 239.69 153.089 239.392C153.432 239.111 153.804 238.883 154.196 238.77C154.751 238.609 155.309 238.805 155.867 238.699C156.061 238.662 156.29 238.571 156.363 238.305C154.918 238.182 153.247 239.049 151.728 240.177C151.815 240.172 151.901 240.165 151.988 240.143Z" fill="#F2FAFF"/>
<path d="M274.092 227.576C274.092 227.576 270.722 193.874 277.432 197.2C284.142 200.527 281.062 214.033 274.092 227.576Z" fill="#394CA4"/>
<path d="M273.649 227.251C273.649 227.251 287.371 194.007 296.838 205.437C306.304 216.869 273.649 227.251 273.649 227.251Z" fill="#100959"/>
<path opacity="0.5" d="M296.311 205.81C296.037 206.848 295.587 207.728 294.775 208C293.758 208.339 292.652 207.927 291.631 207.848C290.466 207.758 289.35 207.996 288.294 208.695C287.273 209.371 286.401 210.391 285.538 211.384C284.674 212.38 283.793 213.462 282.782 214.166C281.823 214.834 280.685 215.12 279.631 215.348H279.628C284.366 207.329 291.065 199.199 296.477 205.032C296.433 205.293 296.379 205.553 296.311 205.81Z" fill="#F2FAFF"/>
<path d="M292.958 245.566H174.492L176.191 237.408L180.187 218.084C183.018 204.443 192.855 195.906 203.016 198.291L208.144 199.516C208.532 199.605 208.905 199.65 209.277 199.65C211.542 199.65 213.694 198.089 214.973 195.437C223.774 177.249 243.674 179.501 250.21 199.427L251.084 202.102C252.625 206.821 256.649 208.93 260.077 206.816L265.192 203.662C268.185 201.813 271.518 203.195 273.362 206.448C274.042 207.63 274.528 209.056 274.721 210.661L275.481 216.768C275.676 218.284 276.096 219.621 276.695 220.736C276.808 220.937 276.921 221.137 277.035 221.315C278.062 222.953 279.467 224.055 281.014 224.435C281.402 224.546 281.823 224.592 282.228 224.592C283.511 224.592 284.812 224.107 285.993 223.02C288.657 220.571 292.228 221.182 294.492 224.301L297.928 229.035C302.355 235.136 299.219 245.566 292.958 245.566Z" fill="#4094F2"/>
<path opacity="0.2" d="M297.595 232.541C296.901 231.119 296.483 229.463 295.737 228.091C294.195 225.255 291.371 224.683 288.968 225.238C287.352 225.612 285.827 226.41 284.164 226.204C282.866 226.045 281.575 225.762 280.314 225.307C277.838 224.41 275.331 222.739 273.942 219.642C272.559 216.562 273.218 212.484 271.584 209.562C269.828 206.418 266.802 206.714 264.363 207.943C262.997 208.632 261.784 209.787 260.413 210.436C258.803 211.198 257.076 211.294 255.42 210.772C254.563 210.502 253.734 210.083 252.946 209.549C252.458 209.218 252.012 208.857 251.667 208.266C251.1 207.292 250.887 206.004 250.92 204.777C250.94 204.029 251.06 203.283 251.267 202.597C252.921 206.962 256.772 208.855 260.077 206.817L265.191 203.664C268.184 201.814 271.517 203.196 273.361 206.45C274.041 207.631 274.527 209.057 274.72 210.662L275.48 216.77C275.675 218.285 276.095 219.623 276.694 220.737C276.807 220.938 276.92 221.138 277.034 221.316C278.061 222.954 279.467 224.056 281.014 224.437C281.402 224.548 281.822 224.593 282.227 224.593C283.51 224.593 284.811 224.108 285.992 223.022C288.656 220.572 292.227 221.183 294.491 224.302L297.927 229.037C299.176 230.758 299.823 232.823 299.967 234.902C298.98 234.601 298.179 233.74 297.595 232.541Z" fill="#F2FAFF"/>
<path opacity="0.25" d="M282.503 245.566H174.492L176.191 237.408C181.53 230.81 188.907 227.579 196.414 229.363L200.41 230.299L202.562 230.789C203.031 230.9 203.5 230.946 203.954 230.946C204.956 230.946 205.944 230.7 206.866 230.21C208.419 229.386 209.778 227.935 210.748 225.93C212.107 223.1 213.71 220.693 215.456 218.709C216.136 217.907 216.831 217.193 217.559 216.546C221.491 212.959 226.004 211.176 230.535 211.109C233.188 211.041 235.826 211.577 238.349 212.713C244.481 215.388 249.917 221.472 252.942 230.722L253.995 233.888C255.855 239.572 260.692 242.09 264.802 239.549L267.909 237.632L270.902 235.782C272.26 234.935 273.685 234.667 275.044 234.846C278.571 235.313 281.677 238.924 282.325 244.161L282.503 245.566Z" fill="#F2FAFF"/>
<path d="M267.856 215.484C267.856 217.086 266.913 218.385 265.75 218.385C264.587 218.385 263.645 217.085 263.645 215.484C263.645 213.882 264.588 212.583 265.75 212.583C266.913 212.584 267.856 213.882 267.856 215.484Z" fill="#100959"/>
<path opacity="0.15" d="M267.368 216.171C267.368 217.774 266.425 219.072 265.262 219.072C264.099 219.072 263.157 217.773 263.157 216.171C263.157 214.569 264.1 213.27 265.262 213.27C266.425 213.27 267.368 214.569 267.368 216.171Z" fill="#202234"/>
<path d="M237.318 237.643C237.318 239.245 236.376 240.544 235.213 240.544C234.05 240.544 233.106 239.244 233.106 237.643C233.106 236.041 234.05 234.741 235.213 234.741C236.376 234.741 237.318 236.041 237.318 237.643Z" fill="#394CA4"/>
<path opacity="0.15" d="M245.399 200.767C245.399 203.855 243.581 206.357 241.341 206.357C239.099 206.357 237.282 203.853 237.282 200.767C237.282 197.68 239.099 195.175 241.341 195.175C243.581 195.175 245.399 197.679 245.399 200.767Z" fill="#202234"/>
<path d="M244.89 198.779C244.89 201.867 243.073 204.369 240.832 204.369C238.59 204.369 236.773 201.867 236.773 198.779C236.773 195.691 238.59 193.188 240.832 193.188C243.072 193.189 244.89 195.691 244.89 198.779Z" fill="#394CA4"/>
<path d="M267.778 244.039C267.778 244.039 258.282 227.543 262.617 226.406C266.953 225.268 268.397 233.801 267.778 244.039Z" fill="#100959"/>
<path opacity="0.5" d="M267.473 233.898C267.031 233.753 266.755 233.327 266.564 232.776C266.183 231.67 266.21 230.373 265.773 229.299C265.552 228.759 265.209 228.345 264.802 228.087C264.4 227.832 263.952 227.704 263.57 227.393C263.201 227.092 263.133 226.725 263.419 226.305C265.687 226.348 267.027 229.386 267.594 233.927C267.553 233.917 267.513 233.911 267.473 233.898Z" fill="#F2FAFF"/>
<path d="M267.778 244.039C267.778 244.039 273.765 221.854 280.371 227.543C286.978 233.232 267.778 244.039 267.778 244.039Z" fill="#394CA4"/>
<path opacity="0.2" d="M280.102 227.345C280.034 227.558 279.879 227.752 279.761 227.819C279.497 227.968 279.157 227.91 278.878 227.903C278.264 227.887 277.633 227.828 277.027 227.994C276.375 228.175 275.753 228.694 275.216 229.216C274.23 230.175 273.593 231.669 272.58 232.564C272.417 232.709 272.184 232.868 271.921 233.006C274.143 228.595 277.047 225.056 280.102 227.345Z" fill="#F2FAFF"/>
<path d="M267.778 244.039C267.778 244.039 245.688 240.341 251.263 235.506C256.837 230.671 267.778 244.039 267.778 244.039Z" fill="#394CA4"/>
<path opacity="0.2" d="M260.402 237.286C259.751 237.121 259.273 236.594 258.719 236.139C258.195 235.71 257.627 235.362 257.029 235.188C256.182 234.943 255.329 235.24 254.478 235.08C254.181 235.025 253.833 234.884 253.72 234.478C255.926 234.29 258.478 235.614 260.798 237.337C260.666 237.33 260.534 237.319 260.402 237.286Z" fill="#F2FAFF"/>
<path d="M87.0819 62.057C87.0819 62.057 96.2281 72.3862 99.9821 72.7368C104.049 73.1174 114.967 63.8769 114.967 63.8769L117.279 68.5591C117.279 68.5591 104.101 84.415 98.3814 84.4405C93.3275 84.4624 81.1143 69.9578 81.1143 69.9578L87.0819 62.057Z" fill="#FB8A77"/>
<path d="M114.967 63.8781L116.65 61.9633C116.65 61.9633 116.729 52.6696 117.662 53.8474C118.595 55.0263 119.119 56.742 119.119 56.742C119.119 56.742 120.462 52.8801 121.785 54.125C123.108 55.371 125.915 59.9711 124.548 61.43C123.181 62.89 123.348 65.6031 121.398 65.2178C119.865 64.9135 117.279 68.5591 117.279 68.5591L114.967 63.8781Z" fill="#FB8A77"/>
<path d="M73.3033 245.516C74.5714 244.733 76.01 244.791 77.0707 245.012C77.8324 245.17 78.5059 245.727 79.103 246.444C80.7028 248.367 85.3183 248.727 86.3521 250.258C87.5337 252.01 85.367 253.177 85.367 253.177H73.6518C71.785 253.615 71.9731 252.156 71.9731 252.156C71.9731 252.156 70.9393 246.976 73.3033 245.516Z" fill="#231F20"/>
<path d="M77.7122 237.62V247.682C77.7122 247.682 75.4742 249.954 73.2361 247.682V237.62H77.7122Z" fill="#FF8D7D"/>
<path d="M65.7754 106.817L69.5452 177.712L72.6592 244.868L78.338 243.714L83.6816 173.208L77.7123 106.817H65.7754Z" fill="#202234"/>
<path d="M50.6564 246.071C52.0017 245.612 53.4302 245.967 54.4649 246.395C55.2081 246.703 55.8228 247.359 56.3444 248.15C57.7418 250.27 62.3078 251.573 63.182 253.211C64.1805 255.083 61.8996 255.71 61.8996 255.71L50.2163 253.249C48.31 253.263 48.6476 251.95 48.6476 251.95C48.6476 251.95 48.1487 246.928 50.6564 246.071Z" fill="#231F20"/>
<path d="M56.2713 237.62L54.7513 247.682C54.7513 247.682 52.5132 249.954 50.2743 247.682L51.7943 237.62H56.2713Z" fill="#FF8D7D"/>
<path d="M56.9793 110.631C56.9793 110.631 53.2095 116.69 53.5236 131.404C53.8376 146.119 53.5051 169.056 53.5051 169.056L50.8018 241.426C50.8018 241.426 54.9563 244.647 56.2714 243.444C69.5033 231.347 69.5453 157.371 69.5453 157.371C69.5453 157.371 74.8855 108.901 71.4298 107.169C67.9748 105.439 56.9793 110.631 56.9793 110.631Z" fill="#232B57"/>
<path d="M80.0662 76.5015C80.0662 76.5015 86.195 79.0398 87.2549 77.9025C88.3155 76.7664 91.9821 65.352 90.9072 64.3246C89.8322 63.2972 78.835 53.9838 72.5945 53.7432C72.5936 53.7432 81.8331 70.1186 80.0662 76.5015Z" fill="#4094F2"/>
<path opacity="0.25" d="M90.9071 64.3246C90.4872 63.9232 88.5498 62.2548 85.9742 60.3575C85.6979 60.8399 85.456 61.3605 85.2142 61.8742C84.8556 62.6366 84.502 63.406 84.0939 64.121C83.7168 64.7816 83.2834 65.4133 82.7485 65.8321C82.2287 66.2405 81.6374 66.3863 81.0471 66.2475C80.8867 66.2093 80.7145 66.1653 80.5684 66.0623C80.4113 65.9524 80.2719 65.7951 80.1401 65.6354C79.8142 65.2398 79.527 64.7886 79.202 64.3929C78.8518 63.9648 78.4386 63.6721 78.0112 63.4141C77.7105 63.2325 77.4006 63.0821 77.0874 62.9513C79.1374 67.792 80.937 73.358 80.067 76.5015C80.067 76.5015 86.1959 79.0398 87.2557 77.9025C88.3155 76.7676 91.9813 65.3531 90.9071 64.3246Z" fill="#231F20"/>
<path d="M67.3457 51.7752C81.4821 51.2488 81.4821 76.8763 81.4821 76.8763C81.4821 76.8763 84.3727 107.386 79.1256 113.23C74.5143 118.366 59.1778 119.535 55.408 113.23C51.413 106.55 55.408 78.6083 55.408 78.6083C55.408 78.6083 50.8117 52.3896 67.3457 51.7752Z" fill="#4094F2"/>
<path opacity="0.25" d="M72.555 112.882C71.8513 112.213 71.0241 112.061 70.1876 112.082C69.2924 112.105 68.4022 112.245 67.507 112.135C66.7033 112.037 65.934 111.748 65.2084 111.264C64.5055 110.794 63.8312 110.241 63.1728 109.663C61.6653 108.339 60.1806 106.857 58.9259 105.094C58.3767 104.323 57.9106 103.503 57.6015 102.503C57.1556 101.059 56.9994 99.4853 56.9952 97.9258C56.986 94.5093 57.6141 91.16 57.641 87.7447C57.6813 82.6541 57.0817 77.6457 56.425 72.6523C56.2318 72.827 56.0471 73.0191 55.8682 73.2204C55.5465 73.5837 55.2425 73.977 54.9394 74.3704C55.1107 76.9099 55.408 78.606 55.408 78.606C55.408 78.606 51.413 106.547 55.408 113.228C58.2759 118.024 67.8387 118.494 74.28 116.184C73.923 114.883 73.3948 113.68 72.555 112.882Z" fill="#231F20"/>
<path d="M54.8218 76.8243L48.4981 95.0519L58.0794 113.229L55.9052 117.766C55.9052 117.766 41.1398 103.166 39.8591 95.4846C38.7279 88.698 47.9355 70.571 47.9355 70.571L54.8218 76.8243Z" fill="#FB8A77"/>
<path d="M58.0794 113.229L62.1877 115.641C62.1877 115.641 66.4043 114.555 65.7761 116.07C65.148 117.585 64.0478 117.232 64.0478 117.232C64.0478 117.232 67.0787 118.185 66.4891 120.236C65.8996 122.288 63.2626 127.077 61.9273 125.562C60.5921 124.047 58.7857 124.561 58.6286 121.856C58.5052 119.73 55.9043 117.765 55.9043 117.765L58.0794 113.229Z" fill="#FB8A77"/>
<path d="M55.4089 78.6071L52.5813 82.5014C52.5813 82.5014 43.55 76.9295 43.55 74.4953C43.55 72.0611 52.1127 56.2353 59.796 54.7636C63.3206 54.0891 55.4089 78.6071 55.4089 78.6071Z" fill="#4094F2"/>
<path d="M54.8857 234.869L62.1407 173.238L62.1432 127.649C66.1818 125.817 68.0067 117.533 68.0831 117.179L67.8194 117.071C67.801 117.157 65.9307 125.649 61.9652 127.33L61.8686 127.371V173.208L54.6161 234.809L54.8857 234.869Z" fill="#726658"/>
<path opacity="0.5" d="M75.612 236.473C75.8891 230.398 78.3094 177.093 77.8324 175.89C77.4671 174.967 73.4528 151.773 71.381 139.638L71.1123 139.725C71.3584 141.16 77.1169 174.872 77.5914 176.07C77.9449 177.373 76.0839 220.097 75.3365 236.449L75.612 236.473Z" fill="#726658"/>
<path d="M78.2439 65.1819C75.8126 66.9567 72.9859 68.2606 70.3304 67.9193C69.0035 67.7492 67.8832 66.7959 66.6731 65.9282C65.4856 65.0778 64.0714 64.5017 62.9553 65.9548C62.7336 66.244 62.5194 65.5915 62.7386 65.3057C64.9305 62.4527 67.423 66.325 69.6116 67.0099C71.0577 67.4623 72.5861 67.1187 74.0155 66.6397C75.428 66.1677 76.8028 65.4249 78.1296 64.4565C78.3841 64.2714 78.4958 64.998 78.2439 65.1819ZM78.804 72.1097C77.3822 72.4869 75.9604 72.8652 74.5378 73.2424C73.2126 73.5941 71.8387 74.183 70.4967 74.242C69.2605 74.2975 68.3838 72.7819 67.2391 72.2451C65.9425 71.6377 64.5719 71.8795 63.2551 72.1097C62.9805 72.1572 62.9822 71.4063 63.2551 71.3577C64.4392 71.1506 65.6401 70.9609 66.8209 71.3161C67.3785 71.4838 67.9126 71.7939 68.4174 72.2428C69.0355 72.7935 69.5855 73.4437 70.3044 73.49C71.0157 73.5362 71.7463 73.2262 72.4476 73.0411C73.1068 72.8664 73.7652 72.6917 74.4245 72.5158C75.8462 72.1387 77.268 71.7603 78.6898 71.3832C78.9602 71.3138 79.0761 72.038 78.804 72.1097ZM77.9037 78.0252C75.5607 79.2041 73.1135 80.0788 70.6739 79.4031C69.473 79.0711 68.3174 78.3862 67.1887 77.6168C65.971 76.7884 64.7466 75.8698 63.4113 76.1463C63.1375 76.203 63.1401 75.451 63.4113 75.3955C64.5744 75.1537 65.6721 75.7819 66.7445 76.5084C67.8799 77.279 69.0136 78.0483 70.2095 78.4903C72.7574 79.432 75.3306 78.5377 77.7904 77.2998C78.0557 77.1667 78.1691 77.891 77.9037 78.0252Z" fill="white"/>
<path d="M65.2665 41.3419L64.5677 52.8882C64.5677 52.8882 67.2358 58.1535 69.7879 54.1204L69.62 46.3735L65.2665 41.3419Z" fill="#FB8A77"/>
<path opacity="0.15" d="M67.5599 54.3217C68.1024 52.9982 68.2922 50.999 67.4112 49.8536C67.0543 49.3897 66.595 49.1062 66.2506 48.6226C65.8232 48.021 65.7358 47.0966 65.7871 46.2914C65.8702 44.9782 66.259 43.6905 66.1759 42.3925L69.6191 46.3723L69.787 54.1192C68.7902 55.6939 67.7765 55.8489 66.9107 55.4544C67.161 55.1293 67.3827 54.7544 67.5599 54.3217Z" fill="#33133F"/>
<path d="M76.2023 29.2275C76.2023 29.2275 76.9044 47.7491 71.5683 48.4571C66.2322 49.1663 63.7909 41.4738 63.7909 41.4738C63.7909 41.4738 62.8167 42.3369 62.5656 40.9867C62.3145 39.6366 61.1128 37.2753 62.2725 36.3428C63.4331 35.4103 63.8262 36.8865 63.8262 36.8865L63.1174 32.7053C63.1182 32.7053 75.9856 23.1617 76.2023 29.2275Z" fill="#FB8A77"/>
<path opacity="0.05" d="M63.3617 37.2764C63.3617 37.2764 62.6512 36.7697 62.38 37.5332C62.1079 38.2957 62.7638 41.1684 63.5893 40.8004C63.5893 40.8004 62.5118 40.1861 62.6168 38.4195C62.7201 36.6516 63.1853 37.8421 63.3617 37.2764Z" fill="#33133F"/>
<path d="M63.4861 36.4654C63.8707 37.2255 67.0392 29.5191 69.2798 31.1284C71.5213 32.7377 74.217 32.1407 75.0182 30.5928C75.8194 29.0436 78.17 29.2276 76.2477 24.7108C72.7432 16.4757 55.5634 20.7934 63.4861 36.4654Z" fill="#202234"/>
<path opacity="0.05" d="M66.7142 39.861C66.6512 40.3759 67.0585 40.8988 67.6229 41.0295C68.188 41.1614 68.6961 40.8502 68.7591 40.3354C68.8221 39.8217 68.4156 39.2976 67.8504 39.1669C67.2861 39.0361 66.7772 39.3473 66.7142 39.861ZM73.1126 39.9096C73.0496 40.4245 73.4561 40.9474 74.0213 41.0781C74.5865 41.2089 75.0954 40.8988 75.1584 40.384C75.2214 39.8691 74.8141 39.3462 74.2497 39.2154C73.6845 39.0847 73.1756 39.3959 73.1126 39.9096Z" fill="#33133F"/>
<path d="M72.8423 35.0736C72.8969 35.0736 72.9498 35.0343 72.9792 34.9648C73.0044 34.9035 73.6149 33.514 75.1131 34.428C75.1321 34.4396 75.1525 34.4459 75.1733 34.4465C75.194 34.4472 75.2146 34.4422 75.234 34.4319C75.2533 34.4216 75.271 34.4061 75.286 34.3864C75.301 34.3667 75.313 34.3431 75.3214 34.317C75.3298 34.2908 75.3343 34.2627 75.3348 34.2341C75.3353 34.2055 75.3317 34.1771 75.3242 34.1505C75.3167 34.1238 75.3055 34.0995 75.2912 34.0788C75.2769 34.0582 75.2597 34.0416 75.2408 34.03C73.4747 32.9518 72.7121 34.73 72.7046 34.7473C72.6618 34.8515 72.6886 34.9845 72.7634 35.0447C72.7886 35.0655 72.8154 35.0736 72.8423 35.0736ZM69.7787 35.1118C69.7989 35.1118 69.8182 35.106 69.8375 35.0956C69.9181 35.0505 69.9576 34.9255 69.9257 34.8144C69.9198 34.7948 69.3462 32.8951 67.2694 33.5094C67.2285 33.5215 67.1927 33.5555 67.1699 33.6038C67.1471 33.6522 67.1391 33.711 67.1476 33.7674C67.1519 33.7954 67.1601 33.8219 67.1718 33.8454C67.1836 33.869 67.1986 33.8891 67.216 33.9046C67.2334 33.9201 67.2529 33.9307 67.2733 33.9357C67.2937 33.9408 67.3147 33.9402 67.3349 33.934C69.1405 33.4006 69.6124 34.9105 69.6318 34.9753C69.6578 35.0609 69.7166 35.1118 69.7787 35.1118ZM71.5776 40.6073C71.6322 40.6073 71.6859 40.5969 71.7388 40.576C72.0739 40.4418 72.2158 39.9223 72.2217 39.9004C72.2385 39.8356 72.2326 39.7638 72.2057 39.706C71.6414 38.512 71.79 36.89 71.7909 36.8738C71.8026 36.7546 71.7422 36.6459 71.6557 36.6297C71.5725 36.6112 71.4894 36.6968 71.4785 36.816C71.4709 36.8865 71.3189 38.5248 71.8942 39.8402C71.8488 39.9547 71.764 40.1132 71.6498 40.1572C71.5423 40.1989 71.413 40.141 71.2643 39.9837C71.1955 39.9108 71.0964 39.9293 71.0435 40.0242C70.9906 40.1202 71.004 40.2556 71.0729 40.3284C71.2459 40.5147 71.4155 40.6073 71.5776 40.6073Z" fill="#202234"/>
<path d="M63.5751 32.0158C63.5751 32.0158 63.3962 39.4503 66.8251 43.6813C66.8251 43.6813 67.1829 40.9706 71.1484 41.7503C75.1139 42.5301 74.5168 44.2146 74.5168 44.2146C74.5168 44.2146 75.4801 44.0006 76.0411 36.3972C75.9546 41.195 75.8194 42.5417 75.8194 42.5417C75.8194 42.5417 75.203 47.8706 71.9235 48.8147C68.6441 49.7599 63.8295 47.1521 63.8211 41.35C63.8211 41.35 64.0521 37.5194 63.3072 35.3015C62.5614 33.0837 62.2037 32.1813 63.5751 32.0158Z" fill="#202234"/>
<path d="M72.5929 42.7951C72.5929 42.7951 70.7915 43.9196 68.7734 42.6262C68.3158 43.7808 70.7075 46.7877 72.5929 42.7951Z" fill="#FCFAF7"/>
<path d="M73.3209 36.8773C73.3209 37.5552 73.5939 38.1048 73.9306 38.1048C74.2674 38.1048 74.5395 37.5552 74.5395 36.8773C74.5395 36.1993 74.2665 35.6509 73.9306 35.6509C73.5939 35.6509 73.3209 36.2005 73.3209 36.8773ZM67.8362 36.8773C67.8362 37.5552 68.1091 38.1048 68.4459 38.1048C68.7826 38.1048 69.0556 37.5552 69.0556 36.8773C69.0556 36.1993 68.7826 35.6509 68.4459 35.6509C68.1091 35.6509 67.8362 36.2005 67.8362 36.8773Z" fill="#202234"/>
<path d="M212.102 60.3575H90.9996C86.9593 60.3575 83.6841 64.8695 83.6841 70.4356V134.078C83.6841 139.644 86.9593 144.156 90.9996 144.156H212.113C216.147 144.156 219.418 139.651 219.418 134.093V70.4356C219.417 64.8695 216.142 60.3575 212.102 60.3575Z" fill="#6EA4FE"/>
<path d="M196.359 102.425C196.359 102.425 196.041 110.602 200.709 109.953C205.376 109.304 219.422 121.62 219.422 121.62V101.298L196.359 102.425Z" fill="#5994EA"/>
<path d="M224.843 81.2253L221.868 96.5259L205.095 100.118L204.961 104.991C204.961 104.991 219.842 108.264 224.025 104.679C227.721 101.511 231.821 83.2326 231.821 83.2326L224.843 81.2253Z" fill="#FB8A77"/>
<path d="M238.803 245.531C237.792 245.024 236.669 245.138 235.844 245.351C235.252 245.503 234.739 245.942 234.29 246.494C233.085 247.971 229.484 248.462 228.713 249.627C227.831 250.958 229.553 251.7 229.553 251.7L238.715 251.119C240.186 251.345 240.004 250.293 240.004 250.293C240.004 250.293 240.686 246.475 238.803 245.531Z" fill="#231F20"/>
<path d="M235.349 240.336L235.569 246.915C235.569 246.915 237.081 248.308 238.495 246.73L238.275 240.151L235.349 240.336Z" fill="#FB8A77"/>
<path d="M250.054 124.391C250.054 124.391 255.906 131.61 253.795 144.654C251.684 157.697 241.67 188.953 241.67 188.953L239.572 243.158L234.537 243.254L229.176 182.531C229.176 182.531 234.306 118.619 237.602 117.892C240.897 117.165 250.054 124.391 250.054 124.391Z" fill="#202234"/>
<path d="M288.746 231.34C287.712 231.649 286.821 232.555 286.216 233.329C285.783 233.884 285.522 234.619 285.358 235.403C284.92 237.503 282.111 240.512 281.913 242.04C281.687 243.784 283.402 243.156 283.402 243.156L290.801 236.051C292.11 235.177 291.557 234.433 291.557 234.433C291.557 234.433 290.672 230.764 288.746 231.34Z" fill="#231F20"/>
<path d="M283.895 229.516L286.583 234.828C286.583 234.828 288.372 234.893 288.946 232.558L286.258 227.246L283.895 229.516Z" fill="#FB8A77"/>
<path d="M257.319 118.902C257.319 118.902 258.397 117.575 262.564 129.643C264.916 136.456 265.073 151.276 265.073 151.276L270.743 176.582L288.242 230.121L285.212 233.076L258.051 182.858C258.051 182.858 234.765 122.963 237.38 120.106C239.996 117.248 257.319 118.902 257.319 118.902Z" fill="#232B57"/>
<path d="M238.453 65.61C232.159 66.8629 224.111 75.2705 222.979 86.074L230.701 88.9016C230.702 88.9016 242.895 64.7261 238.453 65.61Z" fill="#4094F2"/>
<path opacity="0.25" d="M228.82 88.2121L227.293 87.6533L232.534 72.3353C232.534 72.3365 230.896 86.354 228.82 88.2121Z" fill="#231F20"/>
<path d="M235.138 125.373C235.138 125.373 237.351 103.146 234.746 99.1892C232.141 95.2324 227.087 94.4758 229.158 86.6479C231.214 78.82 234.353 69.0253 238.027 65.6956C239.314 64.5491 244.022 63.966 244.022 63.966C244.022 63.966 255.432 59.3394 256.374 65.1125C256.766 67.4912 256.782 75.6639 256.939 85.0479C257.048 91.7072 257.205 98.9937 257.582 105.264C257.99 111.751 258.618 117.114 259.685 119.556C262.384 125.741 235.138 125.373 235.138 125.373Z" fill="#4094F2"/>
<path d="M259.233 84.0807L267.642 97.669L261.945 124.285L264.816 124.592C264.816 124.592 275.426 100.839 274.633 94.1403C273.932 88.2225 263.261 75.9774 263.261 75.9774L259.233 84.0807Z" fill="#FB8A77"/>
<path d="M260.467 127.247C260.467 127.247 260.239 125.224 260.514 124.773C261.152 123.726 262.131 123.413 262.428 123.551C261.574 124.7 260.467 127.247 260.467 127.247Z" fill="#FB8A77"/>
<path opacity="0.2" d="M261.141 124.582C260.947 124.613 260.755 124.691 260.559 124.702C261.197 123.713 262.137 123.416 262.428 123.55C262.205 123.851 261.964 124.247 261.73 124.669C261.538 124.595 261.343 124.549 261.141 124.582Z" fill="white"/>
<path d="M264.821 127.046C264.708 127.426 264.58 127.797 264.438 128.13L264.439 128.131C264.438 128.132 264.438 128.132 264.438 128.135C264.432 128.152 264.402 128.244 264.356 128.375L264.355 128.377C264.319 128.482 264.271 128.608 264.218 128.741C264.218 128.741 263.684 130.292 263.31 130.268C262.935 130.243 262.869 129.864 262.869 129.864C262.869 129.864 262.607 130.211 262.287 129.996C261.967 129.781 261.98 129.422 261.98 129.422C261.98 129.422 261.745 129.752 261.381 129.509C261.016 129.266 260.999 128.758 260.999 128.758C260.999 128.758 260.621 129.225 260.31 128.475C260 127.729 260.538 126.704 260.556 126.656C260.632 126.454 260.712 126.262 260.795 126.081C260.818 126.033 260.835 125.977 260.864 125.935C262.963 122.939 264.343 116.304 264.873 116.185C264.873 116.185 267.306 116.874 267.3 117.722C267.091 118.457 264.816 124.593 264.816 124.593C264.816 124.593 265.242 125.623 264.821 127.046Z" fill="#FB8A77"/>
<path opacity="0.2" d="M264.439 128.13V128.135C264.433 128.152 264.402 128.244 264.357 128.375L264.356 128.377C264.32 128.482 264.272 128.608 264.218 128.741C264.218 128.741 263.685 130.293 263.311 130.268C262.936 130.243 262.87 129.864 262.87 129.864C262.87 129.864 262.608 130.212 262.288 129.996C261.968 129.781 261.981 129.422 261.981 129.422C261.981 129.422 261.746 129.752 261.382 129.509C261.017 129.266 260.999 128.758 260.999 128.758C260.999 128.758 260.622 129.225 260.311 128.475C260.199 128.207 260.198 127.902 260.243 127.621C260.346 127.913 260.519 128.191 260.732 128.322C260.787 128.356 260.846 128.379 260.906 128.382C260.975 128.387 261.043 128.365 261.111 128.362C261.26 128.353 261.353 128.513 261.452 128.645C261.58 128.816 261.716 128.965 261.892 129.02C262.025 129.06 262.161 129.045 262.295 129.044C262.436 129.042 262.576 129.07 262.696 129.181C262.81 129.287 262.915 129.391 263.052 129.434C263.289 129.509 263.51 129.361 263.68 129.141C263.798 128.989 263.888 128.805 263.982 128.625C264.104 128.392 264.223 128.153 264.341 127.916C264.544 127.51 264.748 127.11 264.914 126.672C264.888 126.8 264.857 126.925 264.821 127.047C264.709 127.426 264.581 127.796 264.439 128.13Z" fill="white"/>
<path opacity="0.25" d="M257.582 105.265C257.001 103.406 256.279 101.46 255.432 99.7735C253.015 94.9513 247.569 96.3998 247.569 96.3998C254.898 93.9135 255.244 88.5291 255.244 88.5291C255.699 87.2322 256.342 86.0208 256.939 85.0479C257.048 91.7084 257.205 98.9948 257.582 105.265Z" fill="#231F20"/>
<path d="M254.577 62.7095C254.577 62.7095 263.537 68.8506 266.954 79.0745C266.954 79.0745 262.928 85.1554 259.872 86.5808L256.28 82.9387L254.577 62.7095Z" fill="#4094F2"/>
<path d="M246.473 63.133L247.536 62.7095C247.536 62.7095 249.774 69.8132 243.766 70.7873C237.758 71.7615 236.58 69.0831 236.58 69.0831C236.58 69.0831 236.188 66.8502 237.711 65.8321C239.234 64.814 246.473 63.133 246.473 63.133Z" fill="#F56F58"/>
<path d="M241.308 34.708C240.151 35.1418 235.811 35.1407 234.133 38.5861C232.31 42.205 234.515 48.5659 231.774 49.2728C228.802 49.3503 230.085 54.4501 232.598 56.6842C233.817 57.8029 236.63 58.5526 237.897 59.5198C239.936 61.3675 243.704 62.3185 246.541 61.6498C249.399 61.1049 251.328 58.9402 250.197 57.4223C247.869 53.6761 251.368 52.3213 249.041 48.3333C247.166 44.8139 248.077 43.8074 247.537 42.183C245.865 36.824 244.255 34.2545 241.308 34.708Z" fill="#231F20"/>
<path d="M244.045 53.9399L244.852 64.9621C244.852 64.9621 242.364 70.0562 239.877 66.2591L239.944 58.8488L244.045 53.9399Z" fill="#F18A66"/>
<path opacity="0.15" d="M242.008 66.4002C241.473 65.1472 241.268 63.2406 242.096 62.1253C242.431 61.6741 242.868 61.3918 243.191 60.9221C243.592 60.3378 243.664 59.4516 243.606 58.6834C243.511 57.4293 243.124 56.2075 243.187 54.965L239.943 58.8477L239.876 66.2579C240.848 67.7411 241.818 67.8649 242.641 67.4692C242.4 67.1638 242.183 66.8098 242.008 66.4002Z" fill="#33133F"/>
<path d="M233.445 42.6088C233.445 42.6088 232.996 60.3309 238.107 60.8862C243.216 61.4427 245.457 54.0325 245.457 54.0325C245.457 54.0325 246.399 54.8354 246.623 53.5385C246.847 52.2415 247.967 49.9577 246.847 49.0923C245.727 48.2281 245.368 49.6488 245.368 49.6488L245.996 45.6354C245.995 45.6342 233.579 36.8044 233.445 42.6088Z" fill="#F18A66"/>
<path opacity="0.05" d="M245.863 49.8917C245.863 49.8917 246.536 49.3908 246.804 50.1138C247.074 50.8369 246.482 53.5986 245.688 53.2642C245.688 53.2642 246.71 52.6522 246.589 50.9665C246.468 49.2808 246.039 50.4297 245.863 49.8917ZM242.765 54.1678C242.825 54.6595 242.436 55.1593 241.896 55.2854C241.356 55.4103 240.869 55.1142 240.809 54.6225C240.749 54.1308 241.137 53.6298 241.678 53.5049C242.218 53.3787 242.705 53.6761 242.765 54.1678ZM236.647 54.2141C236.707 54.7058 236.319 55.2067 235.778 55.3317C235.238 55.4566 234.751 55.1604 234.691 54.6676C234.631 54.1759 235.02 53.6749 235.56 53.55C236.1 53.425 236.587 53.7224 236.647 54.2141Z" fill="#33133F"/>
<path d="M236.906 49.5898C236.854 49.5898 236.802 49.5528 236.775 49.4857C236.749 49.4267 236.166 48.0973 234.734 48.9731C234.657 49.0206 234.568 48.972 234.535 48.8667C234.501 48.7614 234.536 48.6388 234.612 48.5925C236.301 47.5617 237.03 49.2612 237.037 49.2786C237.051 49.3103 237.057 49.3462 237.057 49.3827C237.057 49.4192 237.05 49.455 237.037 49.4866C237.023 49.5181 237.004 49.5442 236.981 49.5623C236.958 49.5805 236.932 49.5899 236.906 49.5898ZM239.835 49.6268C239.816 49.6268 239.797 49.6222 239.779 49.6118C239.76 49.6017 239.743 49.5867 239.729 49.5677C239.715 49.5487 239.704 49.526 239.696 49.501C239.688 49.4759 239.684 49.449 239.684 49.4218C239.684 49.3945 239.687 49.3675 239.695 49.3422C239.7 49.3237 240.249 47.5096 242.234 48.0939C242.316 48.1181 242.368 48.2281 242.35 48.3414C242.332 48.4537 242.253 48.5254 242.17 48.5011C240.445 47.9909 239.993 49.4348 239.974 49.4972C239.951 49.5782 239.894 49.6268 239.835 49.6268ZM238.115 54.8805C238.063 54.8805 238.012 54.8701 237.961 54.8504C237.641 54.722 237.506 54.2257 237.5 54.2048C237.483 54.1435 237.489 54.0741 237.515 54.0197C238.057 52.8744 237.913 51.3275 237.912 51.3125C237.906 51.2579 237.917 51.2026 237.941 51.1588C237.966 51.115 238.001 51.0862 238.041 51.0788C238.126 51.0637 238.2 51.1436 238.211 51.2569C238.217 51.3252 238.363 52.8905 237.813 54.1481C237.856 54.2569 237.937 54.4085 238.046 54.4524C238.148 54.4929 238.272 54.4374 238.415 54.287C238.481 54.2176 238.576 54.2349 238.626 54.3252C238.677 54.4166 238.664 54.5473 238.599 54.6167C238.432 54.7926 238.269 54.8805 238.115 54.8805Z" fill="#231F20"/>
<path d="M237.144 56.9722C237.144 56.9722 238.867 58.047 240.796 56.8114C241.233 57.9152 238.947 60.7902 237.144 56.9722Z" fill="#FCFAF7"/>
<path d="M236.448 51.3148C236.448 51.9627 236.188 52.4879 235.865 52.4879C235.543 52.4879 235.282 51.9627 235.282 51.3148C235.282 50.6669 235.544 50.1416 235.865 50.1416C236.187 50.1416 236.448 50.6669 236.448 51.3148ZM241.692 51.3148C241.692 51.9627 241.431 52.4879 241.109 52.4879C240.787 52.4879 240.526 51.9627 240.526 51.3148C240.526 50.6669 240.787 50.1416 241.109 50.1416C241.431 50.1416 241.692 50.6669 241.692 51.3148Z" fill="#231F20"/>
<path opacity="0.05" d="M239.378 59.9178C239.218 59.9178 239.114 59.8854 239.104 59.882C239.085 59.8754 239.068 59.8586 239.058 59.8353C239.047 59.8119 239.044 59.7838 239.048 59.757C239.058 59.7015 239.098 59.6668 239.139 59.6795C239.145 59.6818 239.808 59.8843 240.408 59.167C240.424 59.1491 240.443 59.1403 240.463 59.1422C240.483 59.1441 240.502 59.1568 240.515 59.1774C240.542 59.2213 240.539 59.2873 240.508 59.3243C240.089 59.823 239.651 59.9178 239.378 59.9178Z" fill="#33133F"/>
<path d="M235.771 39.7002C235.802 38.9563 235.775 38.4715 235.775 38.4715C230.464 39.1194 233.019 46.7148 233.019 46.7148C234.863 45.4444 235.488 42.7592 235.692 40.797C237.119 43.488 241.587 46.7101 246.58 46.849L247.206 45.3253L235.771 39.7002Z" fill="#231F20"/>
<path d="M235.276 39.5544C235.506 41.6045 236.572 43.3955 237.708 44.6658C239.204 46.3387 241.062 47.3557 242.985 47.5327C244.271 47.6519 245.556 47.3754 246.772 46.8027C247.001 46.6951 246.903 46.193 246.673 46.3017C244.68 47.24 242.54 47.2932 240.552 46.2994C238.974 45.5115 237.495 44.0885 236.518 42.1911C236.09 41.3604 235.754 40.4302 235.64 39.4156C235.603 39.087 235.239 39.227 235.276 39.5544Z" fill="#33133F"/>
<path d="M124.302 89.9382V112.24H123.122V101.631H112.299V112.24H111.121V89.9382H112.299V100.196H123.122V89.9382H124.302ZM141.692 110.774V112.24H130.522V89.9382H141.345V91.4041H131.702V100.197H140.328V101.631H131.702V110.775H141.692V110.774ZM146.571 89.9382H147.751V110.774H157.07V112.24H146.571V89.9382ZM160.678 89.9382H161.856V110.774H171.176V112.24H160.677V89.9382H160.678ZM177.026 110.917C175.746 109.929 174.741 108.575 174.009 106.855C173.276 105.135 172.911 103.213 172.911 101.089C172.911 98.9659 173.276 97.043 174.009 95.3238C174.741 93.6023 175.746 92.2498 177.026 91.2618C178.306 90.2737 179.74 89.7797 181.329 89.7797C182.916 89.7797 184.349 90.2691 185.629 91.2456C186.909 92.2232 187.914 93.571 188.647 95.2926C189.379 97.0129 189.744 98.945 189.744 101.09C189.744 103.235 189.379 105.168 188.647 106.889C187.914 108.609 186.909 109.958 185.629 110.936C184.349 111.913 182.916 112.401 181.329 112.401C179.74 112.398 178.306 111.904 177.026 110.917ZM185.005 109.627C186.099 108.778 186.963 107.604 187.595 106.107C188.226 104.608 188.542 102.937 188.542 101.088C188.542 99.2401 188.226 97.5671 187.595 96.07C186.963 94.5729 186.099 93.3998 185.005 92.5494C183.91 91.7002 182.684 91.2756 181.328 91.2756C179.971 91.2756 178.741 91.7014 177.638 92.5494C176.536 93.3986 175.669 94.5729 175.037 96.07C174.404 97.5671 174.088 99.2401 174.088 101.088C174.088 102.937 174.404 104.608 175.037 106.107C175.669 107.604 176.536 108.777 177.638 109.627C178.741 110.477 179.97 110.901 181.328 110.901C182.684 110.901 183.91 110.477 185.005 109.627Z" fill="white"/>
<g opacity="0.25">
<path d="M168.123 38.2656C168.123 38.7897 168.431 39.2143 168.811 39.2143C169.192 39.2143 169.499 38.7897 169.499 38.2656C169.499 37.7415 169.191 37.3169 168.811 37.3169C168.431 37.3181 168.123 37.7426 168.123 38.2656ZM164.129 38.2656C164.129 38.7897 164.438 39.2143 164.818 39.2143C165.198 39.2143 165.507 38.7897 165.507 38.2656C165.507 37.7415 165.198 37.3169 164.818 37.3169C164.438 37.3181 164.129 37.7426 164.129 38.2656ZM160.136 38.2656C160.136 38.7897 160.444 39.2143 160.825 39.2143C161.204 39.2143 161.513 38.7897 161.513 38.2656C161.513 37.7415 161.205 37.3169 160.825 37.3169C160.443 37.3181 160.136 37.7426 160.136 38.2656Z" fill="#4094F2"/>
<path d="M156.831 39.2143C157.211 39.2143 157.519 38.7895 157.519 38.2656C157.519 37.7416 157.211 37.3169 156.831 37.3169C156.45 37.3169 156.142 37.7416 156.142 38.2656C156.142 38.7895 156.45 39.2143 156.831 39.2143Z" fill="#4094F2"/>
<path d="M152.837 39.2143C153.218 39.2143 153.526 38.7895 153.526 38.2656C153.526 37.7416 153.218 37.3169 152.837 37.3169C152.457 37.3169 152.149 37.7416 152.149 38.2656C152.149 38.7895 152.457 39.2143 152.837 39.2143Z" fill="#4094F2"/>
<path d="M166.866 42.9489C166.866 43.473 167.174 43.8976 167.554 43.8976C167.934 43.8976 168.243 43.473 168.243 42.9489C168.243 42.4248 167.934 42.0013 167.554 42.0013C167.174 42.0002 166.866 42.4248 166.866 42.9489ZM162.873 42.9489C162.873 43.473 163.181 43.8976 163.562 43.8976C163.942 43.8976 164.25 43.473 164.25 42.9489C164.25 42.4248 163.942 42.0013 163.562 42.0013C163.181 42.0002 162.873 42.4248 162.873 42.9489ZM158.88 42.9489C158.88 43.473 159.188 43.8976 159.568 43.8976C159.949 43.8976 160.257 43.473 160.257 42.9489C160.257 42.4248 159.949 42.0013 159.568 42.0013C159.188 42.0002 158.88 42.4248 158.88 42.9489ZM154.887 42.9489C154.887 43.473 155.195 43.8976 155.575 43.8976C155.956 43.8976 156.263 43.473 156.263 42.9489C156.263 42.4248 155.955 42.0013 155.575 42.0013C155.195 42.0002 154.887 42.4248 154.887 42.9489ZM150.893 42.9489C150.893 43.473 151.201 43.8976 151.582 43.8976C151.962 43.8976 152.271 43.473 152.271 42.9489C152.271 42.4248 151.962 42.0013 151.582 42.0013C151.201 42.0002 150.893 42.4248 150.893 42.9489ZM146.899 42.9489C146.899 43.473 147.207 43.8976 147.588 43.8976C147.968 43.8976 148.276 43.473 148.276 42.9489C148.276 42.4248 147.968 42.0013 147.588 42.0013C147.208 42.0002 146.899 42.4248 146.899 42.9489Z" fill="#4094F2"/>
</g>
<g opacity="0.25">
<path d="M116.012 185.109C116.393 185.109 116.701 184.684 116.701 184.16C116.701 183.636 116.393 183.212 116.012 183.212C115.632 183.212 115.323 183.637 115.323 184.16C115.323 184.684 115.632 185.109 116.012 185.109ZM116.012 190.61C116.393 190.61 116.701 190.185 116.701 189.661C116.701 189.138 116.393 188.712 116.012 188.712C115.632 188.712 115.323 189.137 115.323 189.661C115.323 190.185 115.632 190.61 116.012 190.61ZM116.012 196.111C116.393 196.111 116.701 195.686 116.701 195.162C116.701 194.639 116.393 194.214 116.012 194.214C115.632 194.214 115.323 194.638 115.323 195.162C115.323 195.688 115.632 196.111 116.012 196.111Z" fill="#4094F2"/>
<path d="M116.012 201.614C116.392 201.614 116.701 201.189 116.701 200.665C116.701 200.141 116.392 199.716 116.012 199.716C115.632 199.716 115.323 200.141 115.323 200.665C115.323 201.189 115.632 201.614 116.012 201.614Z" fill="#4094F2"/>
<path d="M116.012 207.115C116.392 207.115 116.701 206.69 116.701 206.166C116.701 205.642 116.392 205.217 116.012 205.217C115.632 205.217 115.323 205.642 115.323 206.166C115.323 206.69 115.632 207.115 116.012 207.115Z" fill="#4094F2"/>
<path d="M119.411 186.838C119.791 186.838 120.099 186.414 120.099 185.891C120.099 185.367 119.791 184.942 119.411 184.942C119.03 184.942 118.723 185.367 118.723 185.891C118.723 186.415 119.03 186.838 119.411 186.838ZM119.411 192.341C119.791 192.341 120.099 191.916 120.099 191.392C120.099 190.868 119.791 190.443 119.411 190.443C119.03 190.443 118.723 190.868 118.723 191.392C118.723 191.916 119.03 192.341 119.411 192.341ZM119.411 197.842C119.791 197.842 120.099 197.417 120.099 196.893C120.099 196.369 119.791 195.945 119.411 195.945C119.03 195.945 118.723 196.369 118.723 196.893C118.723 197.417 119.03 197.842 119.411 197.842ZM119.411 203.343C119.791 203.343 120.099 202.919 120.099 202.395C120.099 201.87 119.791 201.447 119.411 201.447C119.03 201.447 118.723 201.872 118.723 202.395C118.723 202.919 119.03 203.343 119.411 203.343ZM119.411 208.845C119.791 208.845 120.099 208.42 120.099 207.896C120.099 207.372 119.791 206.947 119.411 206.947C119.03 206.947 118.723 207.372 118.723 207.896C118.723 208.42 119.03 208.845 119.411 208.845ZM119.411 214.346C119.791 214.346 120.099 213.921 120.099 213.397C120.099 212.873 119.791 212.448 119.411 212.448C119.03 212.448 118.723 212.873 118.723 213.397C118.723 213.921 119.03 214.346 119.411 214.346Z" fill="#4094F2"/>
</g>
<path d="M199.446 106.839C200.423 106.828 201.295 106.759 201.738 106.629C202.08 106.53 202.401 106.381 202.69 106.212C202.937 106.066 203.162 105.906 203.356 105.75C203.865 105.349 204.173 104.974 204.173 104.974L211.412 105.379C211.734 103.498 211.475 100.86 211.412 100.412C211.412 100.412 204.736 100.867 203.778 99.7653C203.769 99.7584 203.759 99.7456 203.751 99.7352C203.741 99.7137 203.732 99.6917 203.723 99.6693C203.564 99.3407 203.19 99.0121 202.738 98.7541C202.405 98.5656 202.032 98.4128 201.674 98.3191C200.797 98.0935 199.814 95.0114 199.328 95.3666C198.842 95.7253 199.061 97.7256 199.646 98.3527C200.229 98.9797 199.815 99.6936 199.11 99.6936H198.888C197.479 99.6936 193.12 99.7237 193.009 100.695C192.937 101.329 194.746 101.568 196.149 101.658C194.429 101.635 191.964 101.724 192.139 102.427C192.274 102.968 194.769 103.3 196.164 103.466C195.2 103.473 193.296 103.582 193.288 104.037C193.274 105.019 195.248 105.154 196.58 105.135C195.788 105.221 194.887 105.437 194.832 105.961C194.766 106.599 197.353 106.865 199.446 106.839Z" fill="#FB8A77"/>
<path opacity="0.25" d="M198.534 101.783C198.532 101.783 198.53 101.787 198.528 101.785L196.358 101.582L198.533 101.619H198.537C198.541 101.619 198.621 100.994 198.692 100.692C198.637 101.142 198.616 101.596 198.607 102.048C198.604 102.216 198.603 102.385 198.604 102.552C198.604 102.554 198.527 101.87 198.534 101.783ZM198.532 103.675C198.53 103.675 198.529 103.677 198.528 103.677L196.357 103.473L198.517 103.51C198.509 103.06 198.606 102.764 198.606 102.764C198.609 102.978 198.615 103.192 198.628 103.405C198.641 103.663 198.674 103.92 198.715 104.176C198.687 104.183 198.551 103.852 198.532 103.675ZM198.806 105.159L196.63 105.139L198.788 104.994C198.768 104.917 198.715 104.388 198.748 104.38H198.749C198.77 104.495 198.791 104.611 198.814 104.724C198.901 105.159 199.005 105.588 199.115 106.016C199.005 105.737 198.816 105.159 198.806 105.159Z" fill="#231F20"/>
<path d="M120.72 57.7902C120.72 57.7902 120.645 57.892 120.525 58.0632C120.521 57.4003 120.411 56.6518 119.94 56.5928C119.083 56.4852 116.672 61.025 117.425 61.4542C117.761 61.6451 118.401 61.1962 119.007 60.6409C118.59 61.5711 118.7 62.8368 119.358 62.9918C120.333 63.2209 120.849 61.7805 121.315 60.9591C120.745 62.2063 120.427 64.2945 121.097 64.2575C122.071 64.2043 123.211 61.4369 123.211 61.4369C123.211 61.4369 122.199 63.6883 123.211 64.2251C124.062 64.6752 124.913 60.3586 124.913 60.3586C124.913 60.3586 123.523 55.592 120.72 57.7902Z" fill="#FB8A77"/>
</svg>
